<svg id="visual" viewBox="0 0 960 540" width="960" height="540" xmlns="http://www.w3.org/2000/svg" xmlns:xlink="http://www.w3.org/1999/xlink" version="1.1"><path d="M658 540L668.7 522C679.3 504 700.7 468 717.3 432C734 396 746 360 741.3 324C736.7 288 715.3 252 717.7 216C720 180 746 144 740.8 108C735.7 72 699.3 36 681.2 18L663 0L960 0L960 18C960 36 960 72 960 108C960 144 960 180 960 216C960 252 960 288 960 324C960 360 960 396 960 432C960 468 960 504 960 522L960 540Z" fill="#3b82f6"></path><path d="M807 540L813.2 522C819.3 504 831.7 468 832.7 432C833.7 396 823.3 360 816 324C808.7 288 804.3 252 798.8 216C793.3 180 786.7 144 795.8 108C805 72 830 36 842.5 18L855 0L960 0L960 18C960 36 960 72 960 108C960 144 960 180 960 216C960 252 960 288 960 324C960 360 960 396 960 432C960 468 960 504 960 522L960 540Z" fill="#1f73fc"></path><path d="M885 540L875.7 522C866.3 504 847.7 468 847.2 432C846.7 396 864.3 360 862.5 324C860.7 288 839.3 252 839.2 216C839 180 860 144 873.5 108C887 72 893 36 896 18L899 0L960 0L960 18C960 36 960 72 960 108C960 144 960 180 960 216C960 252 960 288 960 324C960 360 960 396 960 432C960 468 960 504 960 522L960 540Z" fill="#0062ff"></path></svg>